<svg xmlns="http://www.w3.org/2000/svg" viewBox="0 0 64 64" role="img" aria-label="OpenForum logo — many voices">
  <defs>
    <radialGradient id="ome-glow" cx="50%" cy="50%" r="55%">
      <stop offset="0%" stop-color="#a78bfa" stop-opacity="0.35"/>
      <stop offset="60%" stop-color="#c084fc" stop-opacity="0.15"/>
      <stop offset="100%" stop-color="#e879f9" stop-opacity="0"/>
    </radialGradient>
    <linearGradient id="ome-grad" x1="0" y1="0" x2="1" y2="1">
      <stop offset="0%" stop-color="#a78bfa"/>
      <stop offset="100%" stop-color="#e879f9"/>
    </linearGradient>
  </defs>
  <rect x="2" y="2" width="60" height="60" rx="16" fill="#0b0b14"/>
  <circle cx="32" cy="32" r="26" fill="url(#ome-glow)"/>
  <!-- center topic dot -->
  <circle cx="32" cy="32" r="4" fill="url(#ome-grad)"/>
  <!-- 6 people around a circle, speech tails pointing inward; alternating gradient / cream -->
    <circle cx="32.0" cy="13.5" r="5.2" fill="url(#ome-grad)"/>
    <path d="M29.2 17.9 L34.8 17.9 L32.0 22.9 z" fill="url(#ome-grad)"/>
    <circle cx="48.0" cy="22.8" r="5.2" fill="#f5eeda"/>
    <path d="M42.8 22.5 L45.6 27.4 L39.9 27.4 z" fill="#f5eeda"/>
    <circle cx="48.0" cy="41.2" r="5.2" fill="url(#ome-grad)"/>
    <path d="M45.6 36.6 L42.8 41.5 L39.9 36.5 z" fill="url(#ome-grad)"/>
    <circle cx="32.0" cy="50.5" r="5.2" fill="#f5eeda"/>
    <path d="M34.8 46.1 L29.2 46.1 L32.0 41.1 z" fill="#f5eeda"/>
    <circle cx="16.0" cy="41.2" r="5.2" fill="url(#ome-grad)"/>
    <path d="M21.2 41.5 L18.4 36.6 L24.1 36.5 z" fill="url(#ome-grad)"/>
    <circle cx="16.0" cy="22.8" r="5.2" fill="#f5eeda"/>
    <path d="M18.4 27.4 L21.2 22.5 L24.1 27.4 z" fill="#f5eeda"/>
</svg>